<svg xmlns="http://www.w3.org/2000/svg" version="1.1" xmlns:xlink="http://www.w3.org/1999/xlink" xmlns:svgjs="http://svgjs.dev/svgjs" width="1500" height="393" viewBox="0 0 1500 393"><g transform="matrix(1,0,0,1,-0.9084522071641459,0.2905599727004642)"><svg viewBox="0 0 396 104" data-background-color="#ececea" preserveAspectRatio="xMidYMid meet" height="393" width="1500" xmlns="http://www.w3.org/2000/svg" xmlns:xlink="http://www.w3.org/1999/xlink"><g id="tight-bounds" transform="matrix(1,0,0,1,0.24008861730862918,-0.076891188704451)"><svg viewBox="0 0 395.52 104.15378237740889" height="104.15378237740889" width="395.52"><g><svg viewBox="0 0 395.52 104.15378237740889" height="104.15378237740889" width="395.52"><g><svg viewBox="0 0 395.52 104.15378237740889" height="104.15378237740889" width="395.52"><g id="textblocktransform"><svg viewBox="0 0 395.52 104.15378237740889" height="104.15378237740889" width="395.52" id="textblock"><g><svg viewBox="0 0 395.52 104.15378237740889" height="104.15378237740889" width="395.52"><path d="M394.594 22.339C392.735 11.528 387.435 8.522 387.435 8.522 371.165-2.613 350.86-0.213 332.619 1.387 300.414 1.452 268.339 3.83 236.208 5.106 168.767 5.301 100.749 2.101 33.643 9.993 27.339 12.414-6.54 10.468 1.121 23.723 3.129 29.236 10.456 35.356 10.232 40.415 11.236 41.302 12.631 39.269 13.226 40.545 15.309 43.983 18.711 42.361 21.501 44.394 17.614 49.821 20.403 54.34 23.062 59.075 18.377 60.308 12.371 59.724 9.675 63.81 9.396 66.773 7.89 66.211 6.235 66.081 5.026 65.994 2.59 66.319 2.999 67.248 4.394 70.427-1.594 72.265 2.162 75.378-0.422 78.751 3.948 81.67 3.353 85.325 3.278 86.06 3.687 86.687 4.338 86.86 7.22 87.79 3.018 89.606 3.464 91.573 33.029 105.022 65.104 95.725 95.394 101.909 103.259 97.584 97.346 103.444 100.489 102.536 102.943 101.476 104.728 105.866 107.499 103.379 107.927 102.666 107.276 100.979 108.8 101.303 109.6 101.476 110.307 101.433 110.418 100.439 110.586 98.947 109.117 99.876 108.726 99.098 112.947 95.163 111.906 104.525 115.866 104.136 115.68 102.99 114.528 101.347 116.889 101.563 119.232 99.92 119.306 98.557 121.389 102.255 121.463 103.055 121.835 103.617 122.43 104.006 128.938 99.985 135.409 105.433 142.233 103.617 146.417 101.628 150.433 104.698 154.672 103.941 156.16 103.336 157.666 102.255 159.098 104.071 176.632 104.46 195.319 102.839 211.943 104.136 256.364 101.714 303.836 105.131 350.674 101.931 361.719 100.698 373.192 98.947 383.958 97.541 383.958 97.541 392.679 93.692 392.679 76.395S394.538 61.259 394.817 47.486C395.096 33.712 396.398 33.15 394.538 22.339Z" opacity="1" fill="#009b7d" data-fill-palette-color="tertiary"></path><g transform="matrix(1,0,0,1,55.76832,26.230666666666668)"><svg width="283.98335999999995" viewBox="2.15 -33.33 242.60999999999999 44.16" height="51.69244904407555" data-palette-color="#ececea"><path d="M8.72 0.42L8.72 0.42Q7.12 0.42 5.3-0.19 3.47-0.8 2.15-2.22L2.15-2.22 3.19-6.32Q4.17-4.69 5.69-3.73 7.22-2.78 8.96-2.78L8.96-2.78Q10.63-2.78 11.46-3.59 12.29-4.41 12.29-5.59L12.29-5.59Q12.29-6.94 11.41-7.57 10.52-8.19 9.83-8.44L9.83-8.44 7.01-9.51Q6.25-9.83 5.17-10.43 4.1-11.04 3.3-12.19 2.5-13.33 2.5-15.17L2.5-15.17Q2.5-16.84 3.3-18.23 4.1-19.62 5.56-20.43 7.01-21.25 8.99-21.25L8.99-21.25Q10.56-21.25 12.26-20.69 13.96-20.14 15.14-18.82L15.14-18.82 14.1-14.72Q13.26-16.25 11.84-17.15 10.42-18.06 8.89-18.06L8.89-18.06Q7.47-18.06 6.65-17.26 5.83-16.46 5.83-15.42L5.83-15.42Q5.83-14.58 6.39-13.92 6.94-13.26 8.06-12.85L8.06-12.85 10.87-11.77Q11.63-11.49 12.76-10.87 13.89-10.24 14.76-9.06 15.63-7.88 15.63-5.87L15.63-5.87Q15.63-3.06 13.66-1.32 11.7 0.42 8.72 0.42ZM27.22 0L23.47 0 23.47-17.71 18.75-17.71 18.75-20.83 23.57-20.83 23.57-27.78 27.12-27.78 27.12-20.83 32.29-20.83 32.29-17.71 27.22-17.71 27.22 0ZM44.61 0.42L44.61 0.42Q42.43 0.42 40.52-0.68 38.61-1.77 37.43-3.85 36.24-5.94 36.24-8.85L36.24-8.85 36.24-20.83 39.99-20.83 39.99-9.38Q39.99-6.91 41.47-5.02 42.95-3.13 45.62-3.13L45.62-3.13Q47.81-3.13 49.53-4.7 51.25-6.28 51.25-9.27L51.25-9.27 51.25-20.83 55-20.83 55 0 51.52 0 51.52-3.37Q50.38-1.53 48.55-0.56 46.73 0.42 44.61 0.42ZM70.58 0.28L70.58 0.28Q67.74 0.28 65.37-1.16 63.01-2.6 61.61-5.03 60.2-7.47 60.2-10.42L60.2-10.42Q60.2-13.37 61.61-15.8 63.01-18.23 65.37-19.67 67.74-21.11 70.58-21.11L70.58-21.11Q72.63-21.11 74.44-20.38 76.24-19.65 77.63-18.37L77.63-18.37 77.63-33.33 81.38-33.33 81.38 0 77.91 0 77.91-2.74Q76.52-1.35 74.63-0.54 72.74 0.28 70.58 0.28ZM71.07-3.13L71.07-3.13Q73.05-3.13 74.66-4.11 76.28-5.1 77.23-6.75 78.19-8.4 78.19-10.42L78.19-10.42Q78.19-12.43 77.23-14.08 76.28-15.73 74.66-16.72 73.05-17.71 71.07-17.71L71.07-17.71Q69.09-17.71 67.48-16.72 65.86-15.73 64.91-14.08 63.95-12.43 63.95-10.42L63.95-10.42Q63.95-8.4 64.91-6.75 65.86-5.1 67.48-4.11 69.09-3.13 71.07-3.13ZM91.24 10.42L87.18 10.42 93.95-3.06 85.13-20.83 89.36-20.83 93.81-11.81Q94.4-10.59 94.96-9.41 95.51-8.23 96.07-6.56L96.07-6.56Q96.66-8.23 97.19-9.43 97.73-10.63 98.36-11.81L98.36-11.81 102.87-20.83 106.87-20.83 91.24 10.42ZM129.46 10.83L129.46 10.83Q127.07 10.83 125.11 10.14 123.14 9.44 121.62 8.23L121.62 8.23 122.66 3.99Q123.7 5.49 125.44 6.42 127.17 7.36 129.43 7.36L129.43 7.36Q132.94 7.36 135.11 5.24 137.28 3.13 137.28-0.21L137.28-0.21 137.28-2.74Q135.89-1.35 134-0.54 132.1 0.28 129.95 0.28L129.95 0.28Q127.1 0.28 124.74-1.16 122.38-2.6 120.97-5.03 119.57-7.47 119.57-10.42L119.57-10.42Q119.57-13.37 120.97-15.8 122.38-18.23 124.74-19.67 127.1-21.11 129.95-21.11L129.95-21.11Q132.1-21.11 134-20.31 135.89-19.51 137.28-18.09L137.28-18.09 137.28-20.83 140.75-20.83 140.75 0Q140.75 3.4 139.17 5.83 137.59 8.26 135.02 9.55 132.45 10.83 129.46 10.83ZM130.44-3.13L130.44-3.13Q132.42-3.13 134.03-4.11 135.64-5.1 136.6-6.75 137.55-8.4 137.55-10.42L137.55-10.42Q137.55-12.43 136.6-14.08 135.64-15.73 134.03-16.72 132.42-17.71 130.44-17.71L130.44-17.71Q128.46-17.71 126.84-16.72 125.23-15.73 124.27-14.08 123.32-12.43 123.32-10.42L123.32-10.42Q123.32-8.4 124.27-6.75 125.23-5.1 126.84-4.11 128.46-3.13 130.44-3.13ZM157.34 0.42L157.34 0.42Q154.08 0.42 151.49-1.04 148.91-2.5 147.43-5.02 145.95-7.53 145.95-10.63L145.95-10.63Q145.95-13.58 147.38-15.99 148.8-18.4 151.22-19.83 153.63-21.25 156.55-21.25L156.55-21.25Q159.43-21.25 161.82-19.88 164.22-18.51 165.64-16.18 167.07-13.85 167.07-10.9L167.07-10.9 167.07-9.38 153.45-9.38Q152.55-9.38 151.61-9.44 150.68-9.51 149.77-9.65L149.77-9.65Q150.16-6.88 152.29-5 154.43-3.13 157.38-3.13L157.38-3.13Q159.36-3.13 161.06-4.03 162.76-4.93 163.8-6.42L163.8-6.42 164.84-2.15Q163.35-0.94 161.42-0.26 159.5 0.42 157.34 0.42ZM149.67-12.19L149.67-12.19Q151.55-12.5 153.45-12.5L153.45-12.5 160.36-12.5Q161.13-12.5 161.87-12.45 162.62-12.4 163.39-12.33L163.39-12.33Q162.9-14.76 160.95-16.34 159.01-17.92 156.55-17.92L156.55-17.92Q154.01-17.92 152.1-16.23 150.19-14.55 149.67-12.19ZM175.81 0L172.06 0 172.06-20.83 175.54-20.83 175.54-17.47Q176.68-19.31 178.5-20.28 180.33-21.25 182.45-21.25L182.45-21.25Q184.67-21.25 186.56-20.16 188.45-19.06 189.63-17 190.81-14.93 190.81-11.98L190.81-11.98 190.81 0 187.06 0 187.06-11.46Q187.06-13.92 185.59-15.82 184.11-17.71 181.44-17.71L181.44-17.71Q179.25-17.71 177.53-16.13 175.81-14.55 175.81-11.56L175.81-11.56 175.81 0ZM200.81 0L197.06 0 197.06-20.83 200.81-20.83 200.81 0ZM198.94-24.58L198.94-24.58Q197.89-24.58 197.17-25.31 196.44-26.04 196.44-27.08L196.44-27.08Q196.44-28.16 197.17-28.87 197.89-29.58 198.94-29.58L198.94-29.58Q200.01-29.58 200.72-28.87 201.44-28.16 201.44-27.08L201.44-27.08Q201.44-26.04 200.72-25.31 200.01-24.58 198.94-24.58ZM215.43 0.42L215.43 0.42Q213.24 0.42 211.33-0.68 209.42-1.77 208.24-3.85 207.06-5.94 207.06-8.85L207.06-8.85 207.06-20.83 210.81-20.83 210.81-9.38Q210.81-6.91 212.28-5.02 213.76-3.13 216.43-3.13L216.43-3.13Q218.62-3.13 220.34-4.7 222.06-6.28 222.06-9.27L222.06-9.27 222.06-20.83 225.81-20.83 225.81 0 222.34 0 222.34-3.37Q221.19-1.53 219.37-0.56 217.54 0.42 215.43 0.42ZM237.85 0.42L237.85 0.42Q236.26 0.42 234.43-0.19 232.61-0.8 231.29-2.22L231.29-2.22 232.33-6.32Q233.31-4.69 234.83-3.73 236.36-2.78 238.1-2.78L238.1-2.78Q239.76-2.78 240.6-3.59 241.43-4.41 241.43-5.59L241.43-5.59Q241.43-6.94 240.55-7.57 239.66-8.19 238.97-8.44L238.97-8.44 236.15-9.51Q235.39-9.83 234.31-10.43 233.24-11.04 232.44-12.19 231.64-13.33 231.64-15.17L231.64-15.17Q231.64-16.84 232.44-18.23 233.24-19.62 234.69-20.43 236.15-21.25 238.13-21.25L238.13-21.25Q239.69-21.25 241.4-20.69 243.1-20.14 244.28-18.82L244.28-18.82 243.24-14.72Q242.4-16.25 240.98-17.15 239.56-18.06 238.03-18.06L238.03-18.06Q236.6-18.06 235.79-17.26 234.97-16.46 234.97-15.42L234.97-15.42Q234.97-14.58 235.53-13.92 236.08-13.26 237.19-12.85L237.19-12.85 240.01-11.77Q240.77-11.49 241.9-10.87 243.03-10.24 243.9-9.06 244.76-7.88 244.76-5.87L244.76-5.87Q244.76-3.06 242.8-1.32 240.84 0.42 237.85 0.42Z" opacity="1" transform="matrix(1,0,0,1,0,0)" fill="#ececea" class="wordmark-text-0" data-fill-palette-color="quaternary" id="text-0"></path></svg></g></svg></g></svg></g></svg></g><g></g></svg></g><defs></defs></svg><rect width="395.52" height="104.15378237740889" fill="none" stroke="none" visibility="hidden"></rect></g></svg></g></svg>
